<svg width="17" height="17" viewBox="0 0 17 17" fill="none" xmlns="http://www.w3.org/2000/svg">
<path d="M10.2481 13.012L7.30176 9.66438C7.11388 9.45091 6.8792 9.34418 6.59772 9.34418C6.31555 9.34418 6.07199 9.45091 5.86703 9.66438C5.66207 9.89726 5.55959 10.1736 5.55959 10.4934C5.55959 10.814 5.66207 11.0908 5.86703 11.3236L10.5555 16.6507C10.7605 16.8836 10.9996 17 11.2729 17C11.5462 17 11.7853 16.8836 11.9903 16.6507L16.7044 11.2945C16.8923 11.0811 16.9906 10.814 16.9995 10.4934C17.0077 10.1736 16.9093 9.89726 16.7044 9.66438C16.5165 9.45091 16.2774 9.34418 15.987 9.34418C15.6967 9.34418 15.4575 9.45091 15.2696 9.66438L12.2977 13.012V2.32877C12.2977 1.68836 12.0972 1.13993 11.6961 0.683493C11.2944 0.227831 10.8117 0 10.2481 0H1.02481C0.734446 0 0.491224 0.11178 0.295145 0.335342C0.098381 0.558128 0 0.834475 0 1.16438C0 1.49429 0.098381 1.77064 0.295145 1.99342C0.491224 2.21699 0.734446 2.32877 1.02481 2.32877L10.2481 2.32877V13.012Z" fill="white"/>
</svg>
