<svg width="31" height="31" viewBox="0 0 31 31" fill="none" xmlns="http://www.w3.org/2000/svg">
<path d="M23.6582 18.633L17.5717 13.276C17.1836 12.9344 16.9895 12.5077 16.9895 11.9959C16.9895 11.4829 17.1836 11.0401 17.5717 10.6674C17.9951 10.2948 18.4976 10.1084 19.079 10.1084C19.6619 10.1084 20.1651 10.2948 20.5885 10.6674L30.2741 19.192C30.6975 19.5646 30.9092 19.9994 30.9092 20.4963C30.9092 20.9931 30.6975 21.4279 30.2741 21.8006L20.5356 30.3717C20.1475 30.7133 19.6619 30.8922 19.079 30.9083C18.4976 30.9232 17.9951 30.7444 17.5717 30.3717C17.1836 30.0301 16.9895 29.5953 16.9895 29.0674C16.9895 28.5395 17.1836 28.1047 17.5717 27.7631L23.6582 22.3596H4.23421C3.06983 22.3596 2.07269 21.995 1.2428 21.2658C0.414328 20.5354 8.96454e-05 19.6578 8.96454e-05 18.633V1.86338C8.96454e-05 1.33544 0.203327 0.893225 0.609804 0.536716C1.01487 0.178965 1.51732 8.96454e-05 2.11715 8.96454e-05C2.71698 8.96454e-05 3.21943 0.178965 3.6245 0.536716C4.03097 0.893225 4.23421 1.33544 4.23421 1.86338V18.633H23.6582Z" fill="white"/>
</svg>
