<svg width="72" height="72" viewBox="0 0 72 72" fill="none" xmlns="http://www.w3.org/2000/svg">
<circle cx="36.1818" cy="36.3637" r="35.4545" fill="#FF6620"/>
<path d="M25.8669 19.9015C25.8664 21.0802 25.4035 22.2103 24.5802 23.0434C23.7568 23.8764 22.6405 24.3441 21.4767 24.3435C20.3129 24.3429 19.197 23.8741 18.3745 23.0402C17.552 22.2064 17.0902 21.0757 17.0908 19.8971C17.0914 18.7184 17.5543 17.5882 18.3776 16.7552C19.2009 15.9222 20.3173 15.4545 21.4811 15.4551C22.6449 15.4557 23.7607 15.9245 24.5833 16.7583C25.4058 17.5922 25.8675 18.7228 25.8669 19.9015ZM25.9986 27.6344H17.2225V55.4551H25.9986V27.6344ZM39.8648 27.6344H31.1326V55.4551H39.7771V40.8559C39.7771 32.723 50.2426 31.9675 50.2426 40.8559V55.4551H58.909V37.8338C58.909 24.1235 43.4192 24.6346 39.7771 31.3675L39.8648 27.6344Z" fill="#010001"/>
</svg>
