<svg width="71" height="72" viewBox="0 0 71 72" fill="none" xmlns="http://www.w3.org/2000/svg">
<circle cx="35.4545" cy="36.3637" r="35.4545" fill="#FF6620"/>
<path d="M42.1454 36.3642C42.1454 37.6875 41.753 38.9811 41.0178 40.0814C40.2826 41.1818 39.2376 42.0393 38.015 42.5458C36.7924 43.0522 35.4471 43.1847 34.1492 42.9265C32.8513 42.6683 31.6591 42.0311 30.7233 41.0954C29.7876 40.1596 29.1503 38.9674 28.8922 37.6695C28.634 36.3716 28.7665 35.0263 29.2729 33.8037C29.7793 32.5811 30.6369 31.5361 31.7372 30.8009C32.8375 30.0657 34.1312 29.6733 35.4545 29.6733C37.2273 29.6788 38.926 30.3855 40.1796 31.6391C41.4332 32.8927 42.1399 34.5913 42.1454 36.3642ZM56.3636 27.1642V45.5642C56.3636 48.6696 55.13 51.6479 52.9341 53.8437C50.7382 56.0396 47.7599 57.2733 44.6545 57.2733H26.2545C23.1491 57.2733 20.1708 56.0396 17.9749 53.8437C15.779 51.6479 14.5454 48.6696 14.5454 45.5642V27.1642C14.5454 24.0587 15.779 21.0805 17.9749 18.8846C20.1708 16.6887 23.1491 15.4551 26.2545 15.4551H44.6545C47.7599 15.4551 50.7382 16.6887 52.9341 18.8846C55.13 21.0805 56.3636 24.0587 56.3636 27.1642ZM45.4909 36.3642C45.4909 34.3792 44.9022 32.4387 43.7994 30.7883C42.6966 29.1378 41.1292 27.8514 39.2952 27.0918C37.4613 26.3321 35.4434 26.1334 33.4965 26.5207C31.5496 26.9079 29.7613 27.8638 28.3577 29.2674C26.9541 30.671 25.9982 32.4593 25.611 34.4062C25.2237 36.353 25.4225 38.371 26.1821 40.2049C26.9417 42.0388 28.2281 43.6063 29.8786 44.7091C31.5291 45.8119 33.4695 46.4005 35.4545 46.4005C38.1163 46.4005 40.6691 45.3431 42.5513 43.461C44.4335 41.5788 45.4909 39.026 45.4909 36.3642ZM48.8363 25.4914C48.8363 24.9952 48.6892 24.5101 48.4135 24.0975C48.1378 23.6848 47.7459 23.3633 47.2874 23.1733C46.8289 22.9834 46.3244 22.9337 45.8377 23.0306C45.351 23.1274 44.9039 23.3663 44.553 23.7172C44.2021 24.0681 43.9632 24.5152 43.8663 25.0019C43.7695 25.4887 43.8192 25.9932 44.0091 26.4516C44.199 26.9101 44.5206 27.302 44.9333 27.5777C45.3459 27.8534 45.831 28.0005 46.3272 28.0005C46.9927 28.0005 47.6309 27.7362 48.1014 27.2656C48.572 26.7951 48.8363 26.1569 48.8363 25.4914Z" fill="#010001"/>
</svg>
