<svg width="438" height="444" viewBox="0 0 438 444" fill="none" xmlns="http://www.w3.org/2000/svg">
<path fill-rule="evenodd" clip-rule="evenodd" d="M324 27C324 19.268 317.732 13 310 13H80C35.8172 13 0 48.8172 0 93V364C0 408.183 35.8172 444 80 444H351C395.183 444 431 408.183 431 364V126C431 118.268 424.732 112 417 112V112C409.268 112 403 118.268 403 126V364C403 392.719 379.719 416 351 416H80C51.2812 416 28 392.719 28 364V93C28 64.2812 51.2812 41 80 41H310C317.732 41 324 34.732 324 27V27Z" fill="#FF6620"/>
<circle cx="392" cy="46" r="46" fill="white"/>
<path d="M71 218.806V145.194H83.5147V206.67H118.576V218.806H71Z" fill="white"/>
<path d="M128.712 218.806V145.194H141.227V218.806H128.712Z" fill="white"/>
<path d="M190.992 188.267V176.728H224.861V182C224.861 189.56 223.47 196.225 220.689 201.995C217.908 207.698 213.902 212.141 208.671 215.325C203.506 218.442 197.382 220 190.296 220C182.549 220 175.862 218.408 170.233 215.225C164.605 212.042 160.301 207.599 157.321 201.895C154.408 196.192 152.951 189.56 152.951 182C152.951 174.373 154.375 167.709 157.222 162.005C160.135 156.302 164.439 151.892 170.134 148.775C175.828 145.592 182.781 144 190.992 144C195.296 144 199.765 144.696 204.4 146.089C209.035 147.415 213.141 149.438 216.716 152.157L210.658 162.801C204.963 158.358 198.176 156.136 190.296 156.136C185.264 156.136 180.894 157.23 177.186 159.419C173.544 161.607 170.763 164.658 168.843 168.571C166.989 172.417 166.062 176.894 166.062 182C166.062 189.825 168.147 196.092 172.319 200.801C176.491 205.51 182.483 207.864 190.296 207.864C194.799 207.864 198.64 206.969 201.818 205.178C205.063 203.321 207.513 200.901 209.168 197.916C210.889 194.932 211.85 191.716 212.048 188.267H190.992Z" fill="white"/>
<path d="M236.571 218.806V145.194H249.086V175.136H286.431V145.194H298.946V218.806H286.431V187.272H249.086V218.806H236.571Z" fill="white"/>
<path d="M330.939 218.806V157.33H308.591V145.194H366V157.33H343.652V218.806H330.939Z" fill="white"/>
<path d="M108 280.518C108 273.356 109.254 267.188 111.762 262.016C114.27 256.843 117.899 252.897 122.651 250.178C127.403 247.393 133.078 246 139.678 246C146.278 246 151.92 247.393 156.606 250.178C161.358 252.897 164.987 256.843 167.495 262.016C170.003 267.188 171.257 273.356 171.257 280.518V320.806H158.784V300.712H120.473V320.806H108V280.518ZM158.784 280.518C158.784 273.489 157.101 268.017 153.735 264.105C150.369 260.126 145.684 258.136 139.678 258.136C133.606 258.136 128.888 260.126 125.522 264.105C122.156 268.017 120.473 273.489 120.473 280.518V288.476H158.784V280.518Z" fill="#FF6620"/>
<path d="M217.424 247.194C222.374 247.194 226.829 248.188 230.789 250.178C234.748 252.168 237.883 255.152 240.193 259.131C242.503 263.11 243.658 267.984 243.658 273.754C243.658 279.457 242.503 284.298 240.193 288.277C237.883 292.257 234.748 295.241 230.789 297.23C226.829 299.22 222.374 300.215 217.424 300.215H197.923V320.806H185.449V247.194H217.424ZM216.335 288.079C220.691 288.079 224.156 286.852 226.73 284.398C229.304 281.944 230.591 278.396 230.591 273.754C230.591 269.045 229.304 265.464 226.73 263.01C224.156 260.557 220.691 259.33 216.335 259.33H197.923V288.079H216.335Z" fill="#FF6620"/>
<path d="M285.386 247.194C290.336 247.194 294.79 248.188 298.75 250.178C302.71 252.168 305.845 255.152 308.154 259.131C310.464 263.11 311.619 267.984 311.619 273.754C311.619 279.457 310.464 284.298 308.154 288.277C305.845 292.257 302.71 295.241 298.75 297.23C294.79 299.22 290.336 300.215 285.386 300.215H265.884V320.806H253.411V247.194H285.386ZM284.297 288.079C288.653 288.079 292.117 286.852 294.691 284.398C297.265 281.944 298.552 278.396 298.552 273.754C298.552 269.045 297.265 265.464 294.691 263.01C292.117 260.557 288.653 259.33 284.297 259.33H265.884V288.079H284.297Z" fill="#FF6620"/>
<path d="M346.767 322C341.62 322 336.769 321.37 332.215 320.11C327.662 318.85 323.372 316.728 319.346 313.743L325.187 303.099C328.157 305.686 331.456 307.476 335.086 308.471C338.716 309.4 342.61 309.864 346.767 309.864C351.585 309.864 355.281 308.969 357.855 307.178C360.495 305.321 361.814 302.834 361.814 299.717C361.814 297.065 360.363 295.009 357.459 293.55C354.621 292.091 350.661 290.665 345.579 289.272C340.3 287.88 335.911 286.421 332.413 284.895C328.982 283.37 326.078 281.148 323.702 278.23C321.326 275.312 320.138 271.532 320.138 266.89C320.138 260.457 322.481 255.384 327.167 251.67C331.918 247.89 338.452 246 346.767 246C356.073 246 364.256 248.089 371.318 252.267L365.675 263.01C360.726 259.761 354.423 258.136 346.767 258.136C342.478 258.136 339.079 258.932 336.571 260.524C334.129 262.049 332.908 264.171 332.908 266.89C332.908 269.543 334.261 271.632 336.967 273.157C339.739 274.616 343.567 275.976 348.45 277.236C353.928 278.628 358.416 280.054 361.913 281.513C365.477 282.972 368.48 285.161 370.922 288.079C373.364 290.997 374.585 294.876 374.585 299.717C374.585 306.548 372.176 311.986 367.358 316.031C362.54 320.01 355.677 322 346.767 322Z" fill="#FF6620"/>
</svg>
