<svg width="72" height="71" viewBox="0 0 72 71" fill="none" xmlns="http://www.w3.org/2000/svg">
<circle cx="36.1818" cy="35.4545" r="35.4545" fill="#FF6620"/>
<path d="M59.5157 46.9694C59.5157 47.9791 59.2317 48.9152 58.7767 49.7388L44.2335 33.467L58.619 20.8809C59.1786 21.769 59.5157 22.8122 59.5157 23.9395V46.9694ZM36.4854 36.4215L56.5025 18.9071C55.6811 18.4574 54.7561 18.1816 53.7583 18.1816H19.2126C18.2136 18.1816 17.2883 18.4574 16.4702 18.9071L36.4854 36.4215ZM42.066 35.3619L37.4326 39.4186C37.1616 39.6547 36.8242 39.7726 36.4854 39.7726C36.1465 39.7726 35.8091 39.6547 35.5381 39.4186L30.9036 35.3617L16.1764 51.8415C17.0592 52.3953 18.0937 52.7271 19.2125 52.7271H53.7583C54.8769 52.7271 55.9119 52.3953 56.7944 51.8415L42.066 35.3619ZM14.352 20.8809C13.7925 21.7689 13.4551 22.8121 13.4551 23.9395V46.9695C13.4551 47.9792 13.7378 48.9153 14.1945 49.7389L28.736 33.4643L14.352 20.8809Z" fill="#010001"/>
</svg>
