<svg width="71" height="71" viewBox="0 0 71 71" fill="none" xmlns="http://www.w3.org/2000/svg">
<circle cx="35.4545" cy="35.4545" r="35.4545" fill="#FF6620"/>
<path d="M16.1875 34.3099C16.2297 33.8391 16.3139 32.9318 16.3814 32.0244C16.3982 31.8104 16.3729 31.5707 16.2802 31.3824C12.9004 24.5345 16.4909 16.3684 23.7817 14.4082C26.6642 13.6292 29.4541 13.9802 32.1344 15.3326C32.3451 15.4354 32.6148 15.4953 32.8424 15.4696C38.2366 14.8618 43.1083 16.1801 47.3395 19.6554C51.284 22.8996 53.5935 27.1196 54.2846 32.247C54.5122 33.9418 54.4953 35.6281 54.293 37.323C54.2593 37.5798 54.3183 37.8965 54.4448 38.1191C58.5158 45.3693 54.2003 54.554 46.0836 55.8466C43.2348 56.3003 40.5545 55.7439 38.0765 54.2288C37.8911 54.1175 37.6298 54.049 37.4191 54.0661C29.2686 54.8622 21.8515 50.7278 18.1682 43.332C16.9039 40.7897 16.2297 37.8451 16.1875 34.3099ZM17.8227 34.755C17.8817 39.0521 19.3482 43.1694 22.2224 46.4136C26.3355 51.0531 31.5022 52.9876 37.6129 52.2942C37.9922 52.2514 38.3041 52.3114 38.6328 52.5339C41.2625 54.2972 44.1113 54.7509 47.1203 53.8521C53.4839 51.9433 56.2822 44.4277 52.7928 38.6755C52.6073 38.3759 52.4388 38.0934 52.5062 37.6911C52.9108 35.3885 52.8349 33.0944 52.3292 30.8089C50.3653 22.0179 42.0885 15.8976 32.8592 17.2073C32.3704 17.2757 31.9742 17.2073 31.5444 16.9761C27.0435 14.4852 21.4301 15.7778 18.5222 20.0663C16.1707 23.5416 16.0611 27.2052 17.9575 30.9373C18.0924 31.2112 18.1682 31.4595 18.1261 31.7762C17.9997 32.7691 17.9154 33.7621 17.8227 34.755Z" fill="#010001"/>
<path d="M35.0038 45.8945C33.2083 45.8769 31.4566 45.6571 29.7925 44.9273C28.7765 44.4788 27.8656 43.8809 27.1124 43.0632C26.4204 42.3158 26 41.4541 26 40.4165C25.9913 38.7634 27.6379 37.7698 29.0743 38.5876C29.4159 38.781 29.7137 39.0976 29.9939 39.3877C30.2917 39.6955 30.5545 40.0208 30.8085 40.3638C31.9997 41.9465 33.6638 42.3334 35.5118 42.2278C36.3877 42.1839 37.2022 41.9377 37.9204 41.4013C38.7437 40.777 39.1642 39.9681 38.9802 38.9217C38.8051 37.9281 38.0869 37.4357 37.2022 37.1895C35.4856 36.7147 33.7601 36.2926 32.0347 35.8618C30.6859 35.5189 29.3633 35.1408 28.216 34.2966C26.8409 33.2943 26.1139 31.9226 26.0263 30.2343C25.8687 27.1216 27.2262 24.9322 30.1779 23.8419C33.7426 22.5229 37.2548 22.7252 40.5918 24.6508C41.2137 25.0113 41.783 25.5037 42.2734 26.0313C42.6238 26.4094 42.869 26.9458 43.0092 27.447C43.2982 28.467 43.0004 29.2319 42.2384 29.7155C41.3801 30.2607 40.294 30.2431 39.5408 29.6012C39.0415 29.1792 38.6036 28.678 38.1482 28.2032C37.6402 27.6756 37.0271 27.3151 36.3264 27.1216C35.1177 26.7875 33.909 26.7348 32.7003 27.0777C31.9559 27.2887 31.3515 27.702 31.0012 28.423C30.537 29.3638 30.7209 30.2695 31.623 30.7883C32.315 31.1928 33.0945 31.5005 33.874 31.7027C35.5031 32.1336 37.176 32.4413 38.8051 32.8722C39.5846 33.0832 40.3641 33.3822 41.0735 33.7779C43.4296 35.088 44.2266 37.295 43.9463 39.801C43.6223 42.6587 41.7654 44.6635 38.735 45.4197C37.5263 45.7186 36.2651 45.8153 35.0301 46C35.0126 45.9736 35.0126 45.9297 35.0038 45.8945Z" fill="#010001"/>
</svg>
